<?xml version="1.0" encoding="UTF-8"?>
<svg id="Layer_1" xmlns="http://www.w3.org/2000/svg" version="1.1" viewBox="0 0 130 130">
  <!-- Generator: Adobe Illustrator 29.2.1, SVG Export Plug-In . SVG Version: 2.1.0 Build 116)  -->
  <defs>
    <style>
      .st0 {
        fill: #7fbc42;
      }

      .st1 {
        fill: #231f20;
      }
    </style>
  </defs>
  <g>
    <polygon class="st0" points="103.1 105.9 70.7 105.9 70.7 62.2 69.9 62.2 59.9 62.2 59.2 62.2 59.2 85.6 26.7 85.6 26.7 62.2 15.9 62.2 15.9 116.1 26.7 116.1 26.7 95.7 59.2 95.7 59.2 116.1 59.9 116.1 69.9 116.1 113.8 116.1 113.8 62.2 103.1 62.2 103.1 105.9"/>
    <rect class="st1" x="81.5" y="62.2" width="10.8" height="33.5"/>
    <path class="st1" d="M65.2,26.2c6.1,5.4,42.6,30.6,48.7,36h15.3S65.2,12.9,65.2,12.9L.9,62.2h15c6.7-5.5,43.2-30.6,49.3-36"/>
  </g>
  <path class="st1" d="M122.6,105.4c2.9,0,5.2,2.4,5.2,5.3,0,3-2.3,5.3-5.2,5.3-2.9,0-5.3-2.3-5.3-5.3,0-3,2.4-5.3,5.3-5.3h0ZM122.5,106.3c-2.3,0-4.3,2-4.3,4.5s1.9,4.5,4.3,4.5c2.4,0,4.3-2,4.3-4.5,0-2.5-1.9-4.5-4.3-4.5h0ZM121.6,113.9h-.9v-5.9c.5,0,1-.1,1.7-.1.9,0,1.5.2,1.8.4.4.3.5.7.5,1.2,0,.8-.5,1.3-1.2,1.4h0c.5.1.9.6,1,1.5.1.9.3,1.3.4,1.5h-1c-.1-.2-.3-.7-.4-1.5-.1-.8-.5-1-1.3-1h-.7s0,2.6,0,2.6ZM121.6,110.6h.7c.8,0,1.4-.3,1.4-1,0-.5-.4-1-1.4-1h-.7c0,0,0,2.1,0,2.1Z"/>
</svg>